<?xml version="1.0" encoding="utf-8"?>
<!-- Generator: Adobe Illustrator 19.0.0, SVG Export Plug-In . SVG Version: 6.00 Build 0)  -->
<svg version="1.1" id="Layer_1" xmlns="http://www.w3.org/2000/svg" xmlns:xlink="http://www.w3.org/1999/xlink" x="0px" y="0px"
	 viewBox="0 0 255.1 255.1" style="enable-background:new 0 0 255.1 255.1;" xml:space="preserve">
<style type="text/css">
	.st0{fill-rule:evenodd;clip-rule:evenodd;fill:none;stroke:#050606;stroke-width:2;stroke-miterlimit:100;}
</style>
<circle id="XMLID_3_" class="st0" cx="128.2" cy="127.2" r="79.8"/>
<g id="XMLID_5_">
	<path id="XMLID_2_" d="M91.3,140.8l-3.2-8.2H77.8l-3.2,8.2h-3L81.8,115h2.5l10.1,25.8H91.3z M87.2,130l-3-8c-0.4-1-0.8-2.2-1.2-3.7
		c-0.3,1.1-0.6,2.4-1.1,3.7l-3,8H87.2z"/>
	<path id="XMLID_8_" d="M112.7,115.1l-9.6,25.7h-2.9l9.6-25.7H112.7z"/>
	<path id="XMLID_10_" d="M136.3,140.8H122v-25.7h14.3v2.7h-11.3v8.3h10.7v2.6h-10.7v9.5h11.3V140.8z"/>
	<path id="XMLID_12_" d="M156.7,115.1l-9.6,25.7h-2.9l9.6-25.7H156.7z"/>
	<path id="XMLID_14_" d="M173.9,140.8h-3v-23h-8.1v-2.7h19.3v2.7h-8.1V140.8z"/>
</g>
</svg>
