<?xml version="1.0" encoding="utf-8"?>
<!-- Generator: Adobe Illustrator 19.0.0, SVG Export Plug-In . SVG Version: 6.00 Build 0)  -->
<svg version="1.1" id="Layer_1" xmlns="http://www.w3.org/2000/svg" xmlns:xlink="http://www.w3.org/1999/xlink" x="0px" y="0px"
	 viewBox="-292 170.2 255.1 255.1" style="enable-background:new -292 170.2 255.1 255.1;" xml:space="preserve">
<style type="text/css">
	.st0{fill:none;}
	.st1{fill:#010202;}
	.st2{font-family:'OpenSans-Regular';}
	.st3{font-size:36px;}
	.st4{letter-spacing:-2;}
	.st5{fill:none;stroke:#050606;stroke-width:2;stroke-miterlimit:100;}
	.st6{fill:none;stroke:#1E1E1C;stroke-width:1.5;stroke-miterlimit:10;}
	.st7{font-size:16px;}
</style>
<rect id="XMLID_24_" x="-217.9" y="276.1" class="st0" width="131" height="36"/>
<text transform="matrix(1 0 0 1 -217.905 303.39)" class="st1 st2 st3">A /</text>
<text transform="matrix(1 0 0 1 -177.905 303.39)" class="st1 st2 st3 st4"> </text>
<text transform="matrix(1 0 0 1 -172.205 303.39)" class="st1 st2 st3">E</text>
<text transform="matrix(1 0 0 1 -154.005 303.39)" class="st1 st2 st3 st4"> </text>
<text transform="matrix(1 0 0 1 -148.205 303.39)" class="st1 st2 st3">/</text>
<text transform="matrix(1 0 0 1 -135.005 303.39)" class="st1 st2 st3 st4"> </text>
<text transform="matrix(1 0 0 1 -129.305 303.39)" class="st1 st2 st3">T</text>
<circle id="XMLID_3_" class="st5" cx="-164.6" cy="295.4" r="79.8"/>
<line id="XMLID_1_" class="st6" x1="-206.9" y1="313.6" x2="-124.2" y2="313.6"/>
<rect id="XMLID_19_" x="-201.9" y="324.9" class="st0" width="83.1" height="20.3"/>
<text id="XMLID_2_" transform="matrix(1 0 0 1 -199.894 337.0789)" class="st2 st7">Institute</text>
</svg>
