<?xml version="1.0" encoding="utf-8"?>
<!-- Generator: Adobe Illustrator 19.0.0, SVG Export Plug-In . SVG Version: 6.00 Build 0)  -->
<svg version="1.1" id="Layer_1" xmlns="http://www.w3.org/2000/svg" xmlns:xlink="http://www.w3.org/1999/xlink" x="0px" y="0px"
	 viewBox="0 0 255.1 255.1" style="enable-background:new 0 0 255.1 255.1;" xml:space="preserve">
<style type="text/css">
	.st0{fill-rule:evenodd;clip-rule:evenodd;fill:none;stroke:#050606;stroke-width:4;stroke-miterlimit:100;}
</style>
<circle id="XMLID_3_" class="st0" cx="128.3" cy="127.4" r="119.6"/>
<g id="XMLID_5_">
	<path id="XMLID_2_" d="M73.1,147.7l-4.8-12.2H52.9l-4.7,12.2h-4.5l15.2-38.7h3.8l15.1,38.7H73.1z M66.9,131.5l-4.5-11.9
		c-0.6-1.5-1.2-3.4-1.8-5.6c-0.4,1.7-0.9,3.5-1.7,5.6l-4.5,11.9H66.9z"/>
	<path id="XMLID_8_" d="M105.1,109.2l-14.4,38.5h-4.4l14.4-38.5H105.1z"/>
	<path id="XMLID_10_" d="M140.5,147.7H119v-38.5h21.5v4h-17v12.4h16v4h-16v14.2h17V147.7z"/>
	<path id="XMLID_12_" d="M171.1,109.2l-14.4,38.5h-4.4l14.4-38.5H171.1z"/>
	<path id="XMLID_14_" d="M196.8,147.7h-4.5v-34.5h-12.2v-4H209v4h-12.2V147.7z"/>
</g>
</svg>
