<?xml version="1.0" encoding="utf-8"?>
<!-- Generator: Adobe Illustrator 19.0.0, SVG Export Plug-In . SVG Version: 6.00 Build 0)  -->
<svg version="1.1" id="Layer_1" xmlns="http://www.w3.org/2000/svg" xmlns:xlink="http://www.w3.org/1999/xlink" x="0px" y="0px"
	 viewBox="-292 170.2 255.1 255.1" style="enable-background:new -292 170.2 255.1 255.1;" xml:space="preserve">
<style type="text/css">
	.st0{fill:none;stroke:#FFFFFF;stroke-width:4;stroke-miterlimit:100;}
	.st1{fill:#FFFFFF;}
</style>
<circle id="XMLID_3_" class="st0" cx="-163.7" cy="297.6" r="119.6"/>
<g id="XMLID_5_">
	<path id="XMLID_2_" class="st1" d="M-218.9,317.9l-4.8-12.2h-15.4l-4.7,12.2h-4.5l15.2-38.7h3.8l15.1,38.7H-218.9z M-225.1,301.7
		l-4.5-11.9c-0.6-1.5-1.2-3.4-1.8-5.6c-0.4,1.7-0.9,3.5-1.7,5.6l-4.5,11.9H-225.1z"/>
	<path id="XMLID_8_" class="st1" d="M-186.9,279.4l-14.4,38.5h-4.4l14.4-38.5H-186.9z"/>
	<path id="XMLID_10_" class="st1" d="M-151.5,317.9H-173v-38.5h21.5v4h-17v12.4h16v4h-16V314h17V317.9z"/>
	<path id="XMLID_12_" class="st1" d="M-120.9,279.4l-14.4,38.5h-4.4l14.4-38.5H-120.9z"/>
	<path id="XMLID_14_" class="st1" d="M-95.2,317.9h-4.5v-34.5h-12.2v-4H-83v4h-12.2V317.9z"/>
</g>
</svg>
